<svg width="29" height="29" viewBox="0 0 29 29" fill="none" xmlns="http://www.w3.org/2000/svg">
<path d="M18.4995 10.5007C21.8836 13.8883 21.8372 19.3195 18.5199 22.6552C18.5137 22.662 18.5063 22.6694 18.4995 22.6762L14.6933 26.4824C11.3362 29.8395 5.8744 29.8391 2.51782 26.4824C-0.839273 23.1259 -0.839273 17.6635 2.51782 14.3069L4.61953 12.2052C5.17687 11.6479 6.1367 12.0183 6.16548 12.806C6.20218 13.8098 6.38218 14.8182 6.71432 15.7921C6.82681 16.1219 6.74644 16.4866 6.50005 16.733L5.7588 17.4743C4.17138 19.0617 4.1216 21.6464 5.69338 23.2494C7.28067 24.8681 9.88965 24.8777 11.4891 23.2783L15.2954 19.4726C16.8921 17.8758 16.8855 15.2949 15.2954 13.7049C15.0858 13.4956 14.8746 13.3331 14.7097 13.2195C14.593 13.1394 14.4966 13.0331 14.4283 12.9091C14.36 12.7851 14.3216 12.6469 14.3162 12.5055C14.2937 11.907 14.5058 11.2902 14.9788 10.8173L16.1713 9.62469C16.484 9.31198 16.9745 9.27357 17.3372 9.52664C17.7524 9.81662 18.1414 10.1426 18.4995 10.5007ZM26.4822 2.51765C23.1256 -0.838989 17.6638 -0.839442 14.3067 2.51765L10.5005 6.3239C10.4937 6.3307 10.4863 6.33806 10.4801 6.34486C7.16286 9.68054 7.11636 15.1117 10.5005 18.4994C10.8586 18.8575 11.2475 19.1834 11.6628 19.4734C12.0254 19.7264 12.516 19.688 12.8287 19.3753L14.0212 18.1827C14.4941 17.7098 14.7062 17.093 14.6838 16.4945C14.6784 16.3531 14.64 16.2149 14.5716 16.0909C14.5033 15.9669 14.407 15.8606 14.2903 15.7805C14.1254 15.6669 13.9142 15.5044 13.7046 15.2952C12.1145 13.7051 12.1078 11.1242 13.7046 9.52744L17.5108 5.72175C19.1103 4.12228 21.7192 4.13191 23.3066 5.75064C24.8784 7.35357 24.8286 9.93831 23.2412 11.5257L22.4999 12.267C22.2535 12.5134 22.1731 12.8781 22.2856 13.2079C22.6178 14.1818 22.7978 15.1903 22.8345 16.194C22.8633 16.9817 23.8231 17.3521 24.3804 16.7948L26.4821 14.6931C29.8393 11.3366 29.8393 5.87417 26.4822 2.51765Z" fill="black"/>
</svg>
